<?xml version="1.0" encoding="UTF-8" standalone="no"?>
<svg
   xmlns:dc="http://purl.org/dc/elements/1.1/"
   xmlns:cc="http://creativecommons.org/ns#"
   xmlns:rdf="http://www.w3.org/1999/02/22-rdf-syntax-ns#"
   xmlns:svg="http://www.w3.org/2000/svg"
   xmlns="http://www.w3.org/2000/svg"
   xmlns:sodipodi="http://sodipodi.sourceforge.net/DTD/sodipodi-0.dtd"
   xmlns:inkscape="http://www.inkscape.org/namespaces/inkscape"
   version="1.0"
   width="1448.1355pt"
   height="1448.1355pt"
   viewBox="0 0 1448.1355 1448.1355"
   preserveAspectRatio="xMidYMid meet"
   id="svg24"
   sodipodi:docname="simon-says.svg"
   inkscape:version="1.0.1 (1.0.1+r74)">
  <defs
     id="defs28" />
  <sodipodi:namedview
     pagecolor="#ffffff"
     bordercolor="#666666"
     borderopacity="1"
     objecttolerance="10"
     gridtolerance="10"
     guidetolerance="10"
     inkscape:pageopacity="0"
     inkscape:pageshadow="2"
     inkscape:window-width="1920"
     inkscape:window-height="1049"
     id="namedview26"
     showgrid="false"
     showguides="true"
     inkscape:guide-bbox="true"
     inkscape:zoom="1"
     inkscape:cx="524.52266"
     inkscape:cy="971.19444"
     inkscape:window-x="0"
     inkscape:window-y="0"
     inkscape:window-maximized="1"
     inkscape:current-layer="svg24"
     inkscape:pagecheckerboard="true"
     inkscape:document-rotation="0">
    <sodipodi:guide
       position="724.06782,610.16951"
       orientation="1,0"
       id="guide904"
       inkscape:locked="false" />
    <sodipodi:guide
       position="574.83052,724.32205"
       orientation="0,1"
       id="guide906"
       inkscape:locked="false" />
  </sodipodi:namedview>
  <metadata
     id="metadata2">
Created by potrace 1.16, written by Peter Selinger 2001-2019
<rdf:RDF>
  <cc:Work
     rdf:about="">
    <dc:format>image/svg+xml</dc:format>
    <dc:type
       rdf:resource="http://purl.org/dc/dcmitype/StillImage" />
    <dc:title />
  </cc:Work>
</rdf:RDF>
</metadata>
  <path
     style="fill:#000000;stroke:none;stroke-width:0.1"
     inkscape:connector-curvature="0"
     id="path4"
     d="m 2658.4339,-104.50848 c -7.2,1.3 -17.4,5.099996 -24.1,9.099996 -7.7,4.6 -19.9,16.9 -24.6,24.9 -15.7,27.1 -11.4,61.8000001 10.5,84 7.8,7.8 15.5,12.8 26.3,16.9 7.8,2.9 10.5,3.4 20.5,3.8 13.9,0.6 21.8,-1 33.5,-6.7 15.1,-7.3 25.2,-17.4 32.5,-32.4999999 5,-10.2000001 7,-18.7000001 7,-30.1000001 0,-37.7 -29.4,-68.499996 -67,-69.899996 -5.2,-0.2 -11.8,0 -14.6,0.5 z m 26.6,39.899996 0.5,-5.4 h 7 7 l 0.3,14.1 0.3,14.1 5,5.6 5.1,5.7 h -5.1 -5.1 v 17.5 17.5000001 h -11 -11 v -12.4 c 0,-14.5000001 -0.2,-14.8000001 -8.7,-14.4000001 l -5.8,0.3 -0.3,13.2000001 -0.3,13.3 h -11.4 -11.5 v -17.4000001 -17.5 l -4.6,-0.3 -4.6,-0.3 19.7,-22.2 19.7,-22.2 7.1,8.1 7.2,8.1 z" />
  <path
     style="fill:#000000;stroke:none;stroke-width:0.1"
     inkscape:connector-curvature="0"
     id="path6"
     d="m 2472.0339,12.191516 v 87.6 l -43.7,-0.6 c -24.1,-0.3 -60.4,-1.1 -80.8,-1.6 -52.4,-1.5 -108.6,-3 -154.5,-4.1 -102.3,-2.6 -244.1,-6.2 -334.5,-8.5 -101.3,-2.7 -121.5,-2.9 -121.5,-1.7 0,0.6 0.8,1.6 1.8,2.1 1.1,0.6 27.6,1.7 61.8,2.6 98.8,2.5 172.6,4.4 214.4,5.5 21.7,0.5 47.4,1.2 57,1.5 9.6,0.3 35.1,1 56.5,1.5 65.4,1.7 154.1,4.000004 212.5,5.500004 30.5,0.9 74.1,1.8 96.8,2.2 l 41.2,0.6 v -90.100004 -90.2 h -3.5 -3.5 z" />
  <path
     style="fill:#000000;stroke:none;stroke-width:0.1"
     inkscape:connector-curvature="0"
     id="path8"
     d="m 2192.5339,286.69152 c -9.3,0.4 -20.6,1.2 -25,1.8 -22,2.7 -42.8,6 -51,8 -2.2,0.5 -8.3,1.9 -13.5,3 -78,17.4 -159.7,58.9 -221.5,112.4 -27.3,23.8 -53.2,51 -73.3,77.1 -5.1,6.6 -10,12.9 -10.8,14 -4.2,5.5 -22.9,34.3 -28.3,43.7 -35.2,61.4 -57.5,126.4 -66,192.8 -2.5,19.9 -3.2,27.6 -4.1,48.2 -1.1,24 0,57.8 2.6,78.3 0.8,6.6 1.9,15.4 2.4,19.5 1.8,14.6 7,40.2 11.7,57.5 1.3,4.9 3.1,11.5 3.9,14.5 1.9,7.1 5.2,17 6.4,19.2 0.6,1 1,2.4 1,3.2 0,0.7 0.9,3.5 1.9,6.2 1.1,2.7 3.6,9.2 5.6,14.39998 8.3,21.5 22.2,50.1 34.5,71.5 5.7,9.8 23.3,37 28.2,43.5 7,9.3 21.7,28 23.9,30.5 21.5,24.5 40.1,43.4 56.4,57.4 5.5,4.7 10.2,8.8 10.5,9.1 0.3,0.4 4.8,4 10,8.1 45.6,36 100.8,66.2 153,83.6 4.1,1.3 8.4,2.9 9.5,3.3 2.4,1.1 26.7,8 38,10.9 10,2.5 38.7,8 48,9.1 3.9,0.5 10.6,1.4 15,2 4.4,0.6 19.7,1.7 34,2.6 39.5,2.2 74.7,0.1 117.5,-7.2 22.6,-3.9 31.3,-5.9 58.5,-13.6 7.8,-2.2 16.4,-5.2 40,-13.8 28.7,-10.6 68.9,-31.3 97.5,-50.3 17.1,-11.3 44.5,-31.5 47,-34.6 0.3,-0.4 4.7,-4.2 9.9,-8.6 21.9,-18.4 53.4,-52 72.8,-77.6 18.1,-24 19.8,-26.6 40,-60.4 2.3,-3.9 20.6,-40.6 23.6,-47.5 14.5,-32.89998 28.1,-77.49998 34.8,-113.99998 8.7,-47.6 11,-106.5 5.9,-148.5 -4.8,-38.9 -8.5,-58.5 -16.6,-87.5 -9.7,-34.6 -20.7,-62.5 -37.9,-96.5 -9,-17.8 -9.6,-18.8 -20.3,-36.5 -9.9,-16.4 -18.7,-29.1 -32.2,-46.6 -25.1,-32.5 -61.9,-69.2 -95,-94.6 -10.1,-7.7 -29.7,-21.8 -30.4,-21.8 -0.2,0 -3.7,-2.2 -7.8,-4.8 -6.5,-4.3 -10,-6.4 -23.8,-14.5 -5.5,-3.2 -34.7,-17.9 -43.5,-21.9 -28.6,-13 -65.1,-25.2 -94.5,-31.8 -5.2,-1.1 -11.3,-2.5 -13.5,-3 -8.4,-2.1 -30.4,-5.5 -51,-8 -10.2,-1.2 -48.5,-3.1 -59,-2.9 -4.4,0.1 -15.6,0.6 -25,1.1 z m -207.5,214.9 c 2.5,0.5 8.2,2.8 12.8,5 11.5,5.6 20.2,14.2 26.4,26.4 7.1,13.8 8.3,24.4 4.9,40.7 -2.3,11 -7.4,19.3 -17.5,28.2 -15.1,13.3 -20.7,15.6 -38.7,15.6 -14.5,0 -22.7,-2 -31,-7.5 -9.9,-6.5 -13.1,-9.6 -19.7,-19.3 -4.9,-7.2 -6.1,-9.9 -7.2,-15.7 -1.8,-9.1 -1.6,-24.3 0.3,-32.5 1.7,-7.2 9.7,-20.5 14.1,-23.3 1.4,-1 4.8,-3.7 7.5,-6.1 5.6,-5 13.1,-8.9 21.1,-11 6.4,-1.7 20.6,-2 27,-0.5 z m 263,69.4 c 95.2,10.1 175.6,77 203.7,169.4 25.2,83.1 2.6,174.9 -58.3,236.6 -55.8,56.49998 -134.9,82.29998 -211.4,68.89998 -13,-2.3 -17.7,-3.3 -28,-6.5 -55,-16.8 -100.8,-50.79998 -132,-97.99998 -48.9,-74 -53,-168.2 -10.7,-246.4 14.8,-27.3 35.8,-52.4 60.2,-72 33.9,-27.4 79,-46.7 119.5,-51.4 5.2,-0.6 10.9,-1.3 12.5,-1.5 7.9,-0.9 32.4,-0.4 44.5,0.9 z m 474,255.7 c 0,5.4 -0.4,8.7 -0.9,8 -1,-1.6 -2.1,8 -2.1,18.7 0,4.2 -0.5,10.3 -1.1,13.6 -0.6,3.3 -1.5,9.8 -2,14.5 -1.2,12.9 -2.5,21.2 -3.8,24.3 -0.6,1.6 -1.1,4.7 -1.1,7.1 0,2.3 -0.4,4.6 -0.9,5.1 -0.5,0.6 -1.1,2.8 -1.4,5 -0.3,2.2 -1.1,6 -1.7,8.5 -0.7,2.5 -1.6,6.3 -2.2,8.5 -1.8,7.4 -4,15 -4.9,16.7 -0.5,1 -0.9,2.9 -0.9,4.2 0,1.3 -0.7,3.7 -1.5,5.2 -0.8,1.6 -1.5,3.7 -1.5,4.6 0,0.9 -0.4,2 -1,2.3 -0.5,0.3 -1,1.7 -1,3.1 0,1.3 -0.4,3.2 -0.9,4.2 -2.1,3.8 -4.1,8.6 -4.1,9.7 0,0.6 -1.1,3.5 -2.5,6.3 -1.4,2.9 -2.5,5.59998 -2.5,6.19998 0,0.6 -0.4,1.8 -0.9,2.8 -0.8,1.7 -2.7,5.9 -5.4,12.2 -4.3,10.1 -6,13.7 -7,15.5 -0.6,1.1 -3.5,6.7 -6.5,12.5 -3,5.8 -5.8,10.9 -6.2,11.5 -0.7,0.9 -2.4,3.8 -7.5,13 -1.1,2 -6.7,10.7 -15.1,23.5 -2.3,3.6 -5.2,7.6 -6.3,8.9 -1.2,1.3 -2.1,2.7 -2.1,3.1 0,0.3 -0.8,1.5 -1.7,2.6 -1,1.1 -5,6.2 -9,11.4 -3.9,5.2 -8.1,10.6 -9.3,12 -1.2,1.4 -3.9,4.5 -5.9,6.9 -11,13.4 -34.7,37 -49.1,49 -3.6,3 -6.9,5.9 -7.5,6.5 -0.5,0.6 -2.8,2.4 -5,4 -2.2,1.7 -4.2,3.3 -4.5,3.6 -1.1,1.4 -22.6,17.3 -24.7,18.3 -1.3,0.6 -2.3,1.4 -2.3,1.9 0,0.4 -0.6,0.8 -1.4,0.8 -0.8,0 -1.6,0.4 -1.8,0.8 -0.3,0.9 -16.9,11.6 -22.6,14.7 -2.1,1.1 -5.9,3.3 -8.5,4.8 -11.8,7 -38.3,20.3 -49.2,24.7 -1.1,0.5 -3.6,1.5 -5.5,2.3 -1.9,0.8 -5.7,2.3 -8.5,3.3 -2.7,0.9 -5.4,2.1 -6,2.4 -0.5,0.4 -1.9,1 -3,1.3 -1.1,0.3 -7.2,2.4 -13.5,4.7 -6.3,2.3 -13,4.4 -14.8,4.7 -1.8,0.3 -3.5,0.9 -3.8,1.4 -0.3,0.5 -1.7,0.9 -3.2,0.9 -1.5,0.1 -3.8,0.7 -5.2,1.5 -1.4,0.8 -3.7,1.4 -5.2,1.5 -1.5,0 -3,0.4 -3.3,1 -0.3,0.6 -2.2,1 -4.1,1 -2,0 -4.4,0.5 -5.5,1.1 -2.1,1.1 -7.8,2.3 -17.9,3.8 -3,0.5 -6.2,1.2 -7,1.5 -2.2,0.9 -13.2,2.6 -22.5,3.6 -7.5,0.8 -44.5,3.9 -47.3,4 -0.7,0 -1,0.4 -0.7,1 0.4,0.6 -2.7,1 -8.4,1 h -9.1 v -125 -125 h 5 c 13.5,0 41.2,-4.8 59.5,-10.3 34.8,-10.5 69.4,-30.4 97.2,-55.89998 46.7,-43 76.2,-103.9 79.9,-165.1 l 0.7,-10.7 h 124.9 124.8 z m -728,158.8 c 17,4.6 29,11.9 42.1,25.59998 12.4,13.2 21,35.8 21,55.9 0,6.1 -0.6,12.2 -1.5,15.5 -0.9,3 -2.1,7.7 -2.7,10.5 -3.1,13.7 -14.7,30.1 -30,42.6 -6.7,5.5 -23.1,12.6 -34.6,15 -26.2,5.6 -55.7,-2.5 -73.3,-20.1 -11.3,-11.3 -15.2,-16.6 -19.7,-26.5 -6.7,-14.7 -8.6,-24.5 -8,-40 0.5,-15.3 1.9,-20.7 8.6,-34.7 4.3,-9 6.2,-11.7 15.4,-21.3 10.2,-10.79998 10.8,-11.19998 22.5,-16.79998 20.6,-9.9 38.5,-11.6 60.2,-5.7 z" />
  <path
     style="fill:#000000;stroke:none;stroke-width:0.1"
     inkscape:connector-curvature="0"
     id="path10"
     d="m 2060.0339,755.39152 c -11,2.4 -16,9.6 -16,22.9 0,13.3 3.3,17.8 21.7,29.8 6.1,4 11.7,8.2 12.2,9.3 0.6,1.1 1.1,4.4 1.1,7.4 0,7 -1.4,8.2 -9.3,8.2 -7.5,-0.1 -8.7,-1.5 -8.7,-10.2 v -6.3 h -9.5 -9.5 v 8.7 c 0.1,18.4 7,24.3 28.5,24.3 12.4,0 18.3,-1.5 22.6,-5.9 5.5,-5.4 7.5,-17.9 4.7,-28.9 -1.6,-6.3 -8.5,-13.1 -21,-20.5 -5.3,-3.2 -10.4,-6.7 -11.3,-7.9 -2.1,-3.1 -2,-12.1 0.2,-13.9 1.7,-1.4 9.8,-1.8 11.1,-0.5 0.4,0.4 0.9,4 1.2,7.9 l 0.5,7.2 9.3,0.3 9.2,0.3 v -9.4 c 0,-17.4 -5.2,-22.7 -23.3,-23.3 -5.6,-0.1 -11.8,0 -13.7,0.5 z" />
  <path
     style="fill:#000000;stroke:none;stroke-width:0.1"
     inkscape:connector-curvature="0"
     id="path12"
     d="m 2272.0339,755.09152 c -9.4,1.8 -14.1,6.1 -15.9,14.4 -0.6,3 -1.1,16.4 -1.1,32.5 0,30.5 0.7,35.9 5.1,41 4.6,5.2 8.2,6 27.9,6 16.8,0 17.7,-0.1 21.9,-2.5 2.5,-1.4 5.4,-4.1 6.5,-6 2,-3.3 2.1,-5 2.1,-38.5 v -35 l -2.4,-3.9 c -4,-6.4 -8.8,-7.9 -26.6,-8.2 -8.2,-0.1 -16.1,0 -17.5,0.2 z m 26.3,17.3 c 1.8,1.8 1.7,57.5 -0.1,59.3 -2.1,2.1 -17.7,2.4 -20.7,0.4 l -2.5,-1.7 0.2,-28.7 0.3,-28.6 2.5,-1.4 c 3.1,-1.6 18.5,-1.1 20.3,0.7 z" />
  <path
     style="fill:#000000;stroke:none;stroke-width:0.1"
     inkscape:connector-curvature="0"
     id="path14"
     d="m 2108.4339,756.79152 c -0.3,0.8 -0.4,4.3 -0.2,7.8 l 0.3,6.4 4.3,0.3 4.2,0.3 v 30.4 30.4 l -4.2,0.3 -4.3,0.3 v 7.5 7.5 h 18 18 v -7.5 -7.5 l -4.2,-0.3 -4.3,-0.3 v -30.4 -30.4 l 4.3,-0.3 4.2,-0.3 v -7.5 -7.5 l -17.8,-0.3 c -14.3,-0.2 -17.8,0 -18.3,1.1 z" />
  <path
     style="fill:#000000;stroke:none;stroke-width:0.1"
     inkscape:connector-curvature="0"
     id="path16"
     d="m 2158.6339,757.09152 c -0.9,2.4 -0.7,88.7 0.2,90.2 0.6,0.9 3.3,1.2 9.8,1 l 8.9,-0.3 0.4,-22 0.3,-22 7.2,22 7.2,22 h 5.4 5.3 l 7.2,-22 7.3,-22 0.3,22 0.4,22 8.9,0.3 c 6.5,0.2 9.2,-0.1 9.8,-1 1,-1.7 1,-88.9 0,-90.6 -0.6,-0.9 -3.5,-1.2 -10.8,-1 l -9.9,0.3 -9,27.2 c -4.9,15 -9.2,27.4 -9.6,27.7 -0.3,0.3 -4,-10.6 -8.3,-24.2 -4.3,-13.6 -8.4,-26.2 -9.2,-28 l -1.3,-3.2 h -9.9 c -8.2,0 -10.1,0.3 -10.6,1.6 z" />
  <path
     style="fill:#000000;stroke:none;stroke-width:0.1"
     inkscape:connector-curvature="0"
     id="path18"
     d="m 2336.6339,756.99152 c -0.9,2.5 -0.7,88.8 0.2,90.3 0.6,0.9 3.3,1.2 9.8,1 l 8.9,-0.3 0.5,-25 0.5,-25 10.9,25.3 10.9,25.3 9.6,-0.3 9.6,-0.3 v -46 -46 h -9.5 -9.5 l -0.5,24.8 -0.5,24.8 -10.6,-24.8 -10.6,-24.8 -9.5,-0.3 c -8.1,-0.2 -9.7,0 -10.2,1.3 z" />
  <path
     style="fill:#000000;stroke:none;stroke-width:0.1"
     inkscape:connector-curvature="0"
     id="path20"
     d="m 2441.0339,1456.4915 v 66 h -22.2 c -12.3,0 -33.5,-0.5 -47.3,-1 -13.7,-0.5 -47.3,-1.6 -74.5,-2.5 -27.2,-0.8 -68.6,-2.2 -92,-3 -79.5,-2.7 -93.6,-2.9 -94.5,-1.5 -0.6,1 2,1.2 13.6,0.7 7.9,-0.3 13.1,-0.2 11.4,0.2 -2.9,0.6 27.2,2.1 84,4.1 25.1,0.9 106.1,3.7 174.1,6 41.3,1.4 47.4,1.4 47.4,-0.5 0,-0.8 0.7,-1.5 1.5,-1.5 0.8,0 1.5,-0.7 1.5,-1.5 0,-0.8 0.7,-1.5 1.5,-1.5 1.3,0 1.5,-7.7 1.5,-63.5 0,-55.8 -0.2,-63.5 -1.5,-63.5 -0.8,0 -1.5,-0.7 -1.5,-1.5 0,-0.8 -0.7,-1.5 -1.5,-1.5 -1.3,0 -1.5,8 -1.5,66 z" />
  <g
     id="g882"
     transform="translate(1682.0339,-150.50848)" />
  <path
     style="stroke-width:0.24125051"
     d="M 965.42383 965.08398 L 732.52734 965.08398 A 232.90895 232.90895 0 0 0 732.51562 965.42383 A 232.90895 232.90895 0 0 0 965.42383 1198.332 L 965.42383 965.08398 z "
     id="path928"
     transform="scale(0.75000002)" />
  <path
     style="stroke-width:0.24125051"
     d="M 965.42383 732.51562 A 232.90895 232.90895 0 0 0 732.52734 965.08398 L 965.42383 965.08398 L 965.42383 732.51562 z "
     id="path915"
     transform="scale(0.75000002)" />
  <path
     style="stroke-width:0.24125051"
     d="M 1198.3145 965.08398 L 965.42383 965.08398 L 965.42383 1198.332 A 232.90895 232.90895 0 0 0 1198.332 965.42383 A 232.90895 232.90895 0 0 0 1198.3145 965.08398 z "
     id="path923"
     transform="scale(0.75000002)" />
  <path
     style="stroke-width:0.24125051"
     d="M 965.42383 732.51562 L 965.42383 965.08398 L 1198.3145 965.08398 A 232.90895 232.90895 0 0 0 965.42383 732.51562 z "
     id="path902"
     transform="scale(0.75000002)" />
  <path
     style="fill:none;stroke:#000000;stroke-width:0.75px;stroke-linecap:butt;stroke-linejoin:miter;stroke-opacity:1"
     d="m 724.06782,553.22023 c 0,170.59322 0,170.59322 0,170.59322 v 0"
     id="path908"
     inkscape:connector-curvature="0" />
  <path
     style="fill:none;stroke:#000000;stroke-width:0.75px;stroke-linecap:butt;stroke-linejoin:miter;stroke-opacity:1"
     d="m 724.06782,553.22023 v 351.35592 0"
     id="path910"
     inkscape:connector-curvature="0" />
  <path
     id="path978"
     style="fill:none;stroke:#0000ff;stroke-width:3.19465;stroke-miterlimit:4;stroke-dasharray:none;stroke-opacity:1"
     d="M 225.3079,601.40252 A 148.81258,148.81258 0 0 0 76.503288,749.99748 h 65.210822 a 83.597163,83.597163 0 0 1 83.59379,-83.47399 z"
     inkscape:export-filename="/home/luisgomez/dev/whoislewys/whoislewys.dev/static/simon-says-corner.png"
     inkscape:export-xdpi="96"
     inkscape:export-ydpi="96" />
  <path
     id="path980"
     style="fill:none;stroke:#0000ff;stroke-width:3.19465;stroke-miterlimit:4;stroke-dasharray:none;stroke-opacity:1"
     d="m 308.89795,749.99748 a 83.597163,83.597163 0 0 1 0.006,0.1223 83.597163,83.597163 0 0 1 -83.59629,83.59751 V 899.0267 A 148.81258,148.81258 0 0 0 374.12,750.21462 a 148.81258,148.81258 0 0 0 -0.0112,-0.21714 z" />
  <path
     id="path982"
     style="fill:none;stroke:#0000ff;stroke-width:3.19465;stroke-miterlimit:4;stroke-dasharray:none;stroke-opacity:1"
     d="m 225.3079,601.40252 v 65.12097 a 83.597163,83.597163 0 0 1 83.59005,83.47399 h 65.21082 A 148.81258,148.81258 0 0 0 225.3079,601.40252 Z" />
  <path
     id="path985"
     style="fill:none;stroke:#0000ff;stroke-width:3.19465;stroke-miterlimit:4;stroke-dasharray:none;stroke-opacity:1"
     d="m 225.40444,833.58821 a 83.597164,83.597164 0 0 1 -0.1223,0.006 83.597164,83.597164 0 0 1 -83.59752,-83.59629 H 76.375219 a 148.81258,148.81258 0 0 0 148.812071,148.8121 148.81258,148.81258 0 0 0 0.21715,-0.0113 z" />
</svg>
